<!DOCTYPE svg PUBLIC "-//W3C//DTD SVG 1.1//EN" "http://www.w3.org/Graphics/SVG/1.1/DTD/svg11.dtd">
<!-- Uploaded to: SVG Repo, www.svgrepo.com, Transformed by: SVG Repo Mixer Tools -->
<svg fill=" #095591" width="800px" height="800px" viewBox="0 0 128 128" xmlns="http://www.w3.org/2000/svg">
<g id="SVGRepo_bgCarrier" stroke-width="0"/>
<g id="SVGRepo_tracerCarrier" stroke-linecap="round" stroke-linejoin="round"/>
<g id="SVGRepo_iconCarrier"> <title/> <g id="Grid"> <path d="M111.74,114.1H15.26a1.5,1.5,0,0,1-1.5-1.5V74a21.52,21.52,0,0,1,21.5-21.5H91.74A21.52,21.52,0,0,1,113.24,74V112.6A1.5,1.5,0,0,1,111.74,114.1Zm-95-3h93.48V74a18.52,18.52,0,0,0-18.5-18.5H35.26A18.52,18.52,0,0,0,16.76,74Z"/> <path d="M76.42,82.23a8.39,8.39,0,1,1,8.39-8.39A8.4,8.4,0,0,1,76.42,82.23Zm0-13.78a5.39,5.39,0,1,0,5.39,5.39A5.4,5.4,0,0,0,76.42,68.45Z"/> <path d="M97.09,82.23a8.39,8.39,0,1,1,8.4-8.39A8.41,8.41,0,0,1,97.09,82.23Zm0-13.78a5.39,5.39,0,1,0,5.4,5.39A5.4,5.4,0,0,0,97.09,68.45Z"/> <path d="M69.53,54.66H35.07a1.5,1.5,0,0,1-1.5-1.5V38a9.07,9.07,0,0,1-4.31-1.83,6.26,6.26,0,0,1,0-10.13,9.29,9.29,0,0,1,5.81-1.95H69.53c4.63,0,8.39,3.15,8.39,7a6.45,6.45,0,0,1-2.57,5.06A9,9,0,0,1,71,38V53.16A1.5,1.5,0,0,1,69.53,54.66Zm-33-3H68v-15a1.5,1.5,0,0,1,1.5-1.5,6.26,6.26,0,0,0,3.94-1.3,3.54,3.54,0,0,0,1.45-2.72c0-2.21-2.42-4-5.39-4H35.07a6.31,6.31,0,0,0-3.93,1.29,3.27,3.27,0,0,0,0,5.45,6.31,6.31,0,0,0,3.93,1.29,1.5,1.5,0,0,1,1.5,1.5Z"/> <path d="M83.31,54.66H69.53a1.5,1.5,0,0,1-1.5-1.5V36.63a1.5,1.5,0,0,1,1.5-1.5,6.26,6.26,0,0,0,3.94-1.3,3.54,3.54,0,0,0,1.45-2.72c0-2.21-2.42-4-5.39-4a1.5,1.5,0,0,1,0-3H83.31c4.63,0,8.39,3.15,8.39,7a6.45,6.45,0,0,1-2.57,5.06A9,9,0,0,1,84.81,38V53.16A1.5,1.5,0,0,1,83.31,54.66ZM71,51.66H81.81v-15a1.5,1.5,0,0,1,1.5-1.5,6.26,6.26,0,0,0,3.94-1.3,3.51,3.51,0,0,0,1.45-2.72c0-2.21-2.42-4-5.39-4h-6.9a6.23,6.23,0,0,1,1.51,4,6.45,6.45,0,0,1-2.57,5.06A9,9,0,0,1,71,38Z"/> </g> </g>
</svg>