<svg version="1.1" id="Layer_1" xmlns="http://www.w3.org/2000/svg" xmlns:xlink="http://www.w3.org/1999/xlink" x="0px" y="0px" viewBox="0 0 500 500" style="width: 166px;" xml:space="preserve" data-imageid="cleaning-computer-96" imageName="Cleaning Computer" class="illustrations_image">
<style type="text/css">
	.st0_cleaning-computer-96{fill:#CB9BEA;}
	.st1_cleaning-computer-96{opacity:0.32;fill:url(#SVGID_1_);enable-background:new    ;}
	.st2_cleaning-computer-96{fill:#56403D;}
	.st3_cleaning-computer-96{fill:#68E1FD;}
	.st4_cleaning-computer-96{fill:#FFFFFF;}
	.st5_cleaning-computer-96{opacity:0.3;fill:#68E1FD;enable-background:new    ;}
	.st6_cleaning-computer-96{opacity:0.5;fill:#68E1FD;enable-background:new    ;}
	.st7_cleaning-computer-96{opacity:0.32;fill:url(#SVGID_00000111882680614367849790000001999278813125387682_);enable-background:new    ;}
	.st8_cleaning-computer-96{fill:#F9AB2F;}
	.st9_cleaning-computer-96{fill:#D9E021;}
	.st10_cleaning-computer-96{opacity:0.3;fill:#56403D;enable-background:new    ;}
	.st11_cleaning-computer-96{opacity:0.5;fill:#56403D;enable-background:new    ;}
	.st12_cleaning-computer-96{fill:#DBC2AD;}
	.st13_cleaning-computer-96{opacity:0.32;fill:url(#SVGID_00000063611771514888321320000015060590830181821372_);enable-background:new    ;}
	.st14_cleaning-computer-96{fill:#F2F2F2;}
	.st15_cleaning-computer-96{opacity:0.62;fill:#68E1FD;enable-background:new    ;}
	.st16_cleaning-computer-96{fill:#FBB5AD;}
	.st17_cleaning-computer-96{fill:#FE9881;}
</style>
<path id="field_cleaning-computer-96" class="st0_cleaning-computer-96" d="M294.1,171.4l178.2,102.7c3.5,2,4.7,6.4,2.7,9.9c-0.6,1.1-1.6,2-2.7,2.7L220.9,430.9&#10;&#9;c-6.1,3.5-13.6,3.6-19.8,0.2L27.9,336.7c-3.5-1.9-4.8-6.3-2.9-9.8c0.6-1.2,1.6-2.1,2.7-2.8l268.9-155.6"/>
<g id="monitor_cleaning-computer-96">
	
		<linearGradient id="SVGID_1_-cleaning-computer-96" gradientUnits="userSpaceOnUse" x1="76.1456" y1="149.4863" x2="157.0856" y2="206.4563" gradientTransform="matrix(1 0 0 -1 0 502)">
		<stop offset="0" style="stop-color:#FFFFFF;stop-opacity:0"/>
		<stop offset="0.98" style="stop-color:#56403D"/>
	</linearGradient>
	<path class="st1_cleaning-computer-96" d="M208.3,235.1L53.9,331.2l31.9,36.9l167.8-103.5C236.2,252.8,223.3,249.6,208.3,235.1z"/>
	<path class="st2_cleaning-computer-96" d="M225.6,245.5l24.8,11.9c2.8,1.4,4,4.8,2.7,7.6c-0.5,1-1.3,1.9-2.3,2.4l-58.7,34.2c-2.6,1.5-6,0.7-7.7-1.8&#10;&#9;&#9;l-14.2-22.2"/>
	<path class="st3_cleaning-computer-96 targetColor" d="M102.4,181.3L299.9,67.6c4.3-2.5,9.7-1,12.2,3.3c0.8,1.3,1.2,2.9,1.2,4.4v118.3c0,2.6-1.4,5.1-3.7,6.4&#10;&#9;&#9;L99.1,321.5c-2.3,1.3-5.2,0.5-6.5-1.8c-0.4-0.7-0.6-1.5-0.6-2.4V199.6C91.9,192,95.9,185.1,102.4,181.3z" style="fill: rgb(97, 123, 255);"/>
	<path class="st4_cleaning-computer-96" d="M299.9,76.5L108.4,186.7c-4.2,2.4-6.7,6.8-6.7,11.6V287c0,2.7,2.2,4.8,4.8,4.9c0.8,0,1.7-0.2,2.4-0.6&#10;&#9;&#9;l195.2-112c1.5-0.9,2.4-2.4,2.4-4.1V80.4c0-2.5-2-4.5-4.5-4.5C301.3,76,300.5,76.2,299.9,76.5z"/>
	<ellipse transform="matrix(0.1891 -0.982 0.982 0.1891 -56.2722 410.1274)" class="st2_cleaning-computer-96" cx="220.2" cy="239.1" rx="4.8" ry="4.2"/>
	<ellipse class="st5_cleaning-computer-96 targetColor" cx="116.2" cy="189.4" rx="2.1" ry="2.3" style="fill: rgb(97, 123, 255);"/>
	<ellipse class="st6_cleaning-computer-96 targetColor" cx="122.9" cy="186.1" rx="2.1" ry="2.3" style="fill: rgb(97, 123, 255);"/>
</g>
<g id="brush_cleaning-computer-96">
	
		<linearGradient id="SVGID_00000162336245141889719090000013096616384326670231_-cleaning-computer-96" gradientUnits="userSpaceOnUse" x1="300.4418" y1="160.6774" x2="364.5118" y2="205.7874" gradientTransform="matrix(1 0 0 -1 0 502)">
		<stop offset="0" style="stop-color:#FFFFFF;stop-opacity:0"/>
		<stop offset="0.98" style="stop-color:#56403D"/>
	</linearGradient>
	<path style="opacity:0.32;fill:url(#SVGID_00000162336245141889719090000013096616384326670231_);enable-background:new    ;" d="&#10;&#9;&#9;M383.4,300.8c-8.8-7.1-18.7-12.5-27.5-19.6L283.9,326l25.3,29.2l79.9-49.3C387.2,304.1,385.4,302.4,383.4,300.8z"/>
	<path class="st8_cleaning-computer-96" d="M347.5,214.4c2.8,2.5,6.5,3.8,10.2,3.5c6-0.6,0-5.5,0-5.5"/>
	<path class="st2_cleaning-computer-96" d="M339.2,245.1c-0.1-0.5-0.1-0.8-0.1-0.8C339.1,244.5,339.2,244.8,339.2,245.1z"/>
	<path class="st2_cleaning-computer-96" d="M403.8,244.2l-0.1,0.9C403.7,244.9,403.8,244.6,403.8,244.2z"/>
	<path class="st3_cleaning-computer-96 targetColor" d="M371.4,233.7c-17.9,0-32.3,4.7-32.3,10.6h64.6C403.8,238.4,389.3,233.7,371.4,233.7z" style="fill: rgb(97, 123, 255);"/>
	<path class="st3_cleaning-computer-96 targetColor" d="M371.4,254.8c16.9,0,30.8-4.2,32.2-9.6l0.1-0.9h-64.6c0,0,0,0.3,0.1,0.8C340.5,250.5,354.4,254.8,371.4,254.8z&#10;&#9;&#9;" style="fill: rgb(97, 123, 255);"/>
	<path class="st2_cleaning-computer-96" d="M371.4,233.7c-17.9,0-32.3,4.7-32.3,10.6c0,0,0,0.3,0.1,0.8c1.3,5.4,15.2,9.8,32.2,9.8s30.8-4.2,32.2-9.6&#10;&#9;&#9;l0.1-0.9C403.8,238.4,389.3,233.7,371.4,233.7z"/>
	<path class="st2_cleaning-computer-96" d="M387.6,201.4c0,0,18,7.6,18.9,6.8c1-0.7,2.1-1.4,3.2-2v-3.7l-19.9-7.5l-2.2,1.4V201.4z"/>
	<polygon class="st9_cleaning-computer-96" points="387.6,196.6 387,184.2 392,182.5 415.6,191.9 409.7,202.6 406,204.2 &#9;"/>
	<path class="st2_cleaning-computer-96" d="M394.6,203.3l-5.5,59.2h3.8c0,0,7.8-58.7,7-58.4"/>
	<polygon class="st10_cleaning-computer-96" points="387,184.2 407.7,193.5 406,204.2 387.6,196.6 &#9;"/>
	<polygon class="st2_cleaning-computer-96" points="390.2,185.6 390.2,194.2 391.4,186.2 &#9;"/>
	<polygon class="st2_cleaning-computer-96" points="396.5,188.5 396,195.5 397.4,188.9 &#9;"/>
	<polygon class="st2_cleaning-computer-96" points="402.1,191 402.1,197.4 403.3,191.5 &#9;"/>
	<polyline class="st8_cleaning-computer-96" points="359,258.5 353.9,213.5 359,212.8 365,260.1 &#9;"/>
	<path class="st8_cleaning-computer-96" d="M362.4,195.8l-14.9,2.5c0,0,0,0.1,0,0.1c0,0.1,0,0.1,0,0.2c0,0.2,0.1,0.4,0.1,0.6h0.1c0.4,0,0.6,0.4,0.6,0.7&#10;&#9;&#9;c0,0,0,0,0,0.1c0.3,0.3,0.2,0.7,0,1c-0.1,0.1-0.2,0.2-0.4,0.2c-0.8,0.1-1.7,0-2.5-0.1c0-0.1,0-0.1,0-0.1l-3.6-1.6l0,0h-0.1&#10;&#9;&#9;c0,0-0.1,17,11.4,17C365.6,216.3,362.4,195.8,362.4,195.8z"/>
	<path class="st11_cleaning-computer-96" d="M362.4,195.8l-14.9,2.5c0,0,0,0.1,0,0.1c0,0.1,0,0.1,0,0.2c0,0.2,0.1,0.4,0.1,0.6h0.1c0.4,0,0.6,0.4,0.6,0.7&#10;&#9;&#9;c0,0,0,0,0,0.1c0.3,0.3,0.2,0.7,0,1c-0.1,0.1-0.2,0.2-0.4,0.2c-0.8,0.1-1.7,0-2.5-0.1c0-0.1,0-0.1,0-0.1l-3.6-1.6l0,0h-0.1&#10;&#9;&#9;c0,0-0.1,17,11.4,17C365.6,216.3,362.4,195.8,362.4,195.8z"/>
	<path class="st3_cleaning-computer-96 targetColor" d="M371.4,254.8c-17,0-30.9-4.3-32.2-9.8c0.9,6.5,6.6,51.4,6.9,51.6c0,0,3,12.6,25.3,12.6c19,0,24.5-9.6,24.5-9.6&#10;&#9;&#9;l7.7-54.6C402.2,250.6,388.3,254.8,371.4,254.8z" style="fill: rgb(97, 123, 255);"/>
	<path class="st12_cleaning-computer-96" d="M361.1,181.3l3.4-1.1l-3.7-1.6l-20.9,3l1.8,17.7c0,0,3.8,3.3,4.5,3s1.2-3.9,1.2-3.9l0,0l14.9-2.5L361.1,181.3&#10;&#9;&#9;z"/>
	<path class="st11_cleaning-computer-96" d="M361.1,181.3l3.4-1.1l-3.7-1.6l-20.9,3l1.8,17.7c0,0,3.8,3.3,4.5,3s1.2-3.9,1.2-3.9l0,0l14.9-2.5L361.1,181.3&#10;&#9;&#9;z"/>
	<path class="st8_cleaning-computer-96" d="M345.5,200.9c0,0-0.1,17,11.4,17c12.3,0,9.1-20.5,9.1-20.5L345.5,200.9z"/>
	<polygon class="st12_cleaning-computer-96" points="345.5,200.9 343.7,183.2 364.5,180.2 366,197.4 &#9;"/>
	<polygon class="st11_cleaning-computer-96" points="360.4,180.8 362.2,192.7 361.5,180.6 &#9;"/>
	<polygon class="st11_cleaning-computer-96" points="355.9,181.4 356.7,196.3 353.1,181.8 &#9;"/>
	<polygon class="st11_cleaning-computer-96" points="348.6,182.5 349.3,194.2 347.1,182.7 &#9;"/>
</g>
<g id="person_cleaning-computer-96">
	
		<linearGradient id="SVGID_00000092430557804818884890000008315316905780744586_-cleaning-computer-96" gradientUnits="userSpaceOnUse" x1="182.6284" y1="78.2723" x2="244.4284" y2="121.7823" gradientTransform="matrix(1 0 0 -1 0 502)">
		<stop offset="0" style="stop-color:#FFFFFF;stop-opacity:0"/>
		<stop offset="0.98" style="stop-color:#56403D"/>
	</linearGradient>
	
		<polygon style="opacity:0.32;fill:url(#SVGID_00000092430557804818884890000008315316905780744586_);enable-background:new    ;" points="&#10;&#9;&#9;260.8,379.1 188.6,424.3 176.4,417.6 254.9,371.9 &#9;"/>
	<path class="st14_cleaning-computer-96" d="M226,224.5l35.9,151.6c0.9,3.6-4.8,5.2-5.6,1.5l-35.9-151.6C219.5,222.4,225.1,220.9,226,224.5L226,224.5z"/>
	<path class="st14_cleaning-computer-96" d="M192.3,242.5l35.9,151.6c0.9,3.6-4.8,5.2-5.6,1.5L186.7,244C185.8,240.4,191.4,238.8,192.3,242.5L192.3,242.5&#10;&#9;&#9;z"/>
	<path class="st14_cleaning-computer-96" d="M229.7,248.5l-33.7,18.8c-3.3,1.8-6.2-3.2-3-5l33.7-18.8C230,241.6,233,246.7,229.7,248.5L229.7,248.5z"/>
	<path class="st14_cleaning-computer-96" d="M233.2,269.5l-32.3,18c-3.3,1.8-6.2-3.2-2.9-5l32.3-18C233.6,262.7,236.5,267.7,233.2,269.5L233.2,269.5z"/>
	<path class="st14_cleaning-computer-96" d="M237.1,286.6l-32.2,18c-3.3,1.8-6.2-3.2-2.9-5l32.2-18C237.5,279.8,240.4,284.8,237.1,286.6z"/>
	<path class="st14_cleaning-computer-96" d="M242.2,305l-32,17.9c-3.3,1.8-6.2-3.2-2.9-5l32-17.9C242.6,298.2,245.5,303.2,242.2,305L242.2,305z"/>
	<path class="st14_cleaning-computer-96" d="M246.6,321.8l-32,17.9c-3.3,1.8-6.2-3.2-2.9-5l32-17.9C246.9,314.9,249.9,320,246.6,321.8L246.6,321.8z"/>
	<path class="st14_cleaning-computer-96" d="M251.5,341.3l-33.7,18.8c-3.3,1.8-6.2-3.2-2.9-5l33.7-18.8C251.8,334.5,254.8,339.5,251.5,341.3z"/>
	<path class="st2_cleaning-computer-96" d="M192.8,198c0,0-5.8,2.2-10.4,1.1s-3.2-10.6-0.7-12.3s2.5-7.3,2.5-7.3s-1.2-3.3,0.2-3.6s3.8-0.6,4.1,0.5&#10;&#9;&#9;s2.1,17.3,2.1,17.3"/>
	<path class="st15_cleaning-computer-96 targetColor" d="M196.8,150.2v45.1c0,0,1.2,4,2.8,2.6s0.5-9.9,2.5-8s0.9,8.5,2.7,6.2s1.3-8.9,2.7-8.2s-1.8,15.9,1.8,13.2&#10;&#9;&#9;s2-12.7,2.8-14.4s1.7,7.4,3.7,5.5s1.7-13.9,2.8-8.4s2.3,11.8,3.1,7.7c0.8-4-1.7-55.1-1.7-55.1L196.8,150.2z" style="fill: rgb(97, 123, 255);"/>
	<path class="st16_cleaning-computer-96" d="M217.2,159.5c3.5,0.4,7.9,6.6,8,8.1l-2.8-0.6l-0.6-0.4C220.6,164.1,219,161.6,217.2,159.5z"/>
	<path class="st2_cleaning-computer-96" d="M196.4,151.4l3.2,1.4c0.3,0.1,0.7,0.1,0.9-0.1l22.9-13.1c0.5-0.3,0.7-1,0.4-1.5c-0.1-0.2-0.3-0.4-0.5-0.5&#10;&#9;&#9;l-3.2-1.3c-0.3-0.1-0.6-0.1-0.9,0.1l-22.8,13c-0.5,0.3-0.7,0.9-0.5,1.4C196,151.1,196.2,151.3,196.4,151.4z"/>
	<polyline class="st2_cleaning-computer-96" points="209.8,145.9 225.2,178.7 227.3,177.8 211.6,144.3 &#9;"/>
	<path class="st16_cleaning-computer-96" d="M181.1,184.8c0-0.1,0.1-0.2,0.2-0.3c-0.5-0.5-0.8-1.2-0.7-1.9c0-0.4,0.3-0.9,0.6-1.1c-0.5-0.5-0.4-1.2,0-1.7&#10;&#9;&#9;c0.3-0.3,0.7-0.4,1.1-0.3c1.7,0.4,2.9,2.6,3.8,4c0.7,1,1.3,2,2,3.1c0.1-1.5,0.3-3,0.4-4.4s2.3-1.5,2.3,0c-0.1,2.3,0.1,4.5,0.7,6.7&#10;&#9;&#9;c0.2,0.1,0.4,0.3,0.6,0.4c6.5,6.8,14.6,11.8,23.6,14.6c0.8,2.2,0.1,4.6-1.8,6.1c-0.1,0.7-0.5,1.3-1.1,1.6l1.5,0.7&#10;&#9;&#9;c2.5,1,1.4,5.1-1.1,4.1c-9.4-3.9-17.7-10.2-24-18.1c-0.7-0.7-1.4-1.4-2.2-2.1c-1.1-1.1-6.5-6.5-5.1-8.8&#10;&#9;&#9;C181.4,186.5,180.7,185.9,181.1,184.8z"/>
	<path class="st16_cleaning-computer-96" d="M217.9,164.2c0.1-0.1,0.3-0.2,0.4-0.2l0.2-0.1c1-0.8,2.5,0.2,3.4,0.7c1.1,0.6,2.2,1.3,3.2,2.1&#10;&#9;&#9;c0.5,0.6,0.8,1.3,1,2.1c0.4,0.9,0.8,1.8,1.2,2.7c0.9,1.8,1.9,3.6,3,5.3c2.1,3.3,4.7,6.4,7.5,9.2c1.3,1.3-0.7,3.3-2,2&#10;&#9;&#9;c-0.3-0.3-0.6-0.6-0.9-0.9c-0.4,0.3-0.9,0.3-1.3,0c-0.2-0.2-0.5-0.3-0.7-0.5l-0.3-0.3c-0.3,0.7-1.1,1.1-1.8,0.8&#10;&#9;&#9;c-0.2-0.1-0.4-0.2-0.5-0.3c-0.3-0.3-0.6-0.7-1-1c-0.3-0.1-0.6-0.4-0.7-0.6c0-0.1-0.1,2-0.2,1.9c-1.6-1.6-3.4-6.2-4.9-8.9&#10;&#9;&#9;c0-0.1,0-0.3-0.1-0.4c-1.2-2-1.1-3.1-1.2-5.3c0-1.3-0.1-2.6-0.3-3.8l-2.6-2c-0.6-0.5-1.3-1.2-1.1-1.9&#10;&#9;&#9;C218,164.5,217.9,164.3,217.9,164.2z"/>
	<path class="st17_cleaning-computer-96" d="M208.5,200c9,2.7,10.6,1.6,14.9,1.5s8.8-6.1,8.8-6.1s1.1-13.4,9.1-2.9c5.9,7.8,8.2,30.5,9,41.5&#10;&#9;&#9;c-3,2.4-6.9,3.2-10.6,3.8c-2.5,0.4-4.9,0.6-7.4,0.6c-1.5,0-3-0.4-4.4-1l-4.2-19.7c-10.8,0.9-19.1-5.5-19.1-5.5L208.5,200z"/>
	<path class="st16_cleaning-computer-96" d="M227.9,183.9c0,0-5.8,11.1-0.1,14.3s10.2-2.1,10.7-3.4S238.9,183.1,227.9,183.9z"/>
	<path class="st2_cleaning-computer-96" d="M227.4,182.2c2.9-2.1,6.6-2.2,10-1.4c2.9,0.5,5.6,1.9,7.7,4.1c0.7-0.5,1.6-0.8,2.5-0.9&#10;&#9;&#9;c2.2-0.2,4.3,1.1,5.1,3.2c0.7,1.9,0,4.1-1.8,5.2c-1.3,0.7-2.8,0.8-4.3,0.4v0.3c-0.2,2.1,1.8,3.2,2.6,5c0.4,0.8,0.5,1.7,0.3,2.6&#10;&#9;&#9;c-0.2,0.9-1.1,1.8-1.1,2.7c0.1,0.7,0.5,1.3,0.9,1.9c0.4,0.6,0.7,1.3,1,2c-4.2,2.2-9.4,2.2-13.9,1.3c-4.8-1-9.8-3.2-13-7&#10;&#9;&#9;c0.2-0.5,0.5-0.9,0.9-1.2c0.8-0.5,1.6-1,2.5-1.3c1.2-0.7,0-2.9,0-4.1c0.1-2,1.5-2.8,3.2-3.5c1.2-0.5,1.2-1.2,1.3-2.5&#10;&#9;&#9;c0.1-1-0.1-1.9-0.6-2.8c-0.3,0-0.7,0-1-0.2c-0.6-0.4-1.3-0.7-2-0.9c-0.7-0.3-1.1-1-0.9-1.8C226.9,183,227.1,182.5,227.4,182.2z"/>
	<path class="st2_cleaning-computer-96" d="M231.8,186.7c-1.9-0.4-3.7-1-5.4-1.9c0-0.2-0.6-7.1,11.8-4.7s6.5,17.1,6.5,17.1"/>
	<path class="st16_cleaning-computer-96" d="M245.3,340.1c1.1-0.4,2.8-0.7,3.6-1.7s0.7-2.6,0.7-3.9s0-2.5,0-3.7c0.1-0.1,0.2-0.3,0.2-0.5c0.1-1,0.1-2,0-3&#10;&#9;&#9;l5.1-0.5c0,0,2.3,8.8,2.1,9.8s-5,7.6-7.5,8.1s-9.4-1.7-9.9-2.7c0,0,0-0.1,0-0.1C241.5,341.3,243.4,340.7,245.3,340.1z"/>
	<path class="st16_cleaning-computer-96" d="M209.9,321.9c1.7-0.3,8.7,0.8,8.7,0.8s1-5.7,0.9-6l7.3,0.5c0,0,0.9,10.6,0.9,12c0,2.6-3.2,3.4-3.9,3.3&#10;&#9;&#9;c-0.5-0.2-1-0.4-1.5-0.6c0.3-1.3,0.4-2.7,0.4-4c0-0.6-0.2-1-0.8-1.3c-1.1-0.4-3.1,0.2-4.2,0.4c-1.3,0.2-2.6,0.5-3.9,0.8&#10;&#9;&#9;c-2.9-1.5-5.3-3-5.5-3.5C207.9,322.7,207.3,322.4,209.9,321.9z"/>
	<path class="st2_cleaning-computer-96" d="M207.5,322.3c0.1-0.1,0.1-0.1,0.2-0.2c0.6-0.5,2-0.5,2.7-0.5c2.8,0,5.5,0.4,8.2,1c0,0-6.6-0.9-6.9,0.3&#10;&#9;&#9;c-0.2,1,0,2,0.7,2.7c2.8,2.5,7-0.2,9.7-1.4l5-2.1l0.3,4.1c0,0,0.3,5,0,5.6s-3.3,2.1-3.9,1.8s-2.6-1.5-2.6-1.5l0.4-4.9&#10;&#9;&#9;c0,0-4.1,1.8-6.1,1.3C213.8,328.1,205.8,324.6,207.5,322.3z"/>
	<path class="st2_cleaning-computer-96" d="M252.3,336.6c0,0-2.7,8.4-3.6,8.9s-11.3-2.7-9.7-4.7c1-1.2,7.2-1.2,7.7-1.4c0,0-3.3,1.1-3.3,1.6s4.1,2.4,4.3,2&#10;&#9;&#9;s4.7-7.7,4.7-7.7l4.2-1.5l3.5,7.7l-2.9,1.3c0,0-0.9,2.3-1.2,2.3s-2.7-4.3-2.7-4.3s-0.6,2.8-1,3.1s-3.8,3.1-5.4,1l2.9-3.2"/>
	<path class="st9_cleaning-computer-96" d="M231,320c-6.5,1.2-13.3,0.1-18.2-4.3c-0.1-10.8-1.1-20.5-0.8-31.3c0.5-17.6,3.1-34.8,15.4-48.6l22.5-3.4&#10;&#9;&#9;c9.1,17.3,11,96.7,11,96.7s-11.4,7.3-20.1,3.8l-3.4-66.1c0,0-5.9,7-7,11C229.5,280.6,231.1,306.8,231,320z"/>
</g>
<g id="sparks_cleaning-computer-96">
	<path class="st8_cleaning-computer-96" d="M165.2,166.2c0,0,2.6,11-9,13.4c0,0,10.4,1.1,10.2,11.3c0,0-1.3-9.7,8.7-11.3&#10;&#9;&#9;C175.1,179.6,165,178.6,165.2,166.2z"/>
	<path class="st8_cleaning-computer-96" d="M140.9,198.6c0,0,3.4,14.6-11.9,17.9c0,0,13.8,1.5,13.5,15.1c0,0-1.7-13,11.5-15.1&#10;&#9;&#9;C154.1,216.5,140.7,215.1,140.9,198.6z"/>
	<path class="st8_cleaning-computer-96" d="M262.4,123.1c0,0,2.5,10.8-8.9,13.2c0,0,10.2,1.1,10,11.2c0,0-1.3-9.6,8.6-11.2&#10;&#9;&#9;C272.2,136.3,262.3,135.3,262.4,123.1z"/>
</g>
</svg>