<svg xmlns="http://www.w3.org/2000/svg" viewBox="0 0 500 500"><g id="freepik--background-complete--inject-4"><rect x="416.78" y="398.49" width="33.12" height="0.25" style="fill:#ebebeb"></rect><rect x="322.53" y="401.21" width="8.69" height="0.25" style="fill:#ebebeb"></rect><rect x="396.59" y="389.21" width="19.19" height="0.25" style="fill:#ebebeb"></rect><rect x="52.46" y="390.89" width="43.19" height="0.25" style="fill:#ebebeb"></rect><rect x="104.56" y="390.89" width="6.33" height="0.25" style="fill:#ebebeb"></rect><rect x="131.47" y="395.11" width="93.68" height="0.25" style="fill:#ebebeb"></rect><path d="M237,337.8H43.91a5.71,5.71,0,0,1-5.7-5.71V60.66A5.71,5.71,0,0,1,43.91,55H237a5.71,5.71,0,0,1,5.71,5.71V332.09A5.71,5.71,0,0,1,237,337.8ZM43.91,55.2a5.46,5.46,0,0,0-5.45,5.46V332.09a5.46,5.46,0,0,0,5.45,5.46H237a5.47,5.47,0,0,0,5.46-5.46V60.66A5.47,5.47,0,0,0,237,55.2Z" style="fill:#ebebeb"></path><path d="M453.31,337.8H260.21a5.72,5.72,0,0,1-5.71-5.71V60.66A5.72,5.72,0,0,1,260.21,55h193.1A5.71,5.71,0,0,1,459,60.66V332.09A5.71,5.71,0,0,1,453.31,337.8ZM260.21,55.2a5.47,5.47,0,0,0-5.46,5.46V332.09a5.47,5.47,0,0,0,5.46,5.46h193.1a5.47,5.47,0,0,0,5.46-5.46V60.66a5.47,5.47,0,0,0-5.46-5.46Z" style="fill:#ebebeb"></path><rect y="382.4" width="500" height="0.25" style="fill:#ebebeb"></rect><rect x="213.14" y="304.04" width="74.84" height="69.74" style="fill:#e6e6e6"></rect><rect x="215.49" y="375.97" width="9.55" height="6.09" style="fill:#e0e0e0"></rect><rect x="287.99" y="304.04" width="151.98" height="69.06" style="fill:#e6e6e6"></rect><rect x="442.01" y="298.91" width="9.55" height="83.16" style="fill:#e6e6e6"></rect><rect x="295.39" y="309.54" width="65.88" height="60.34" style="fill:#f5f5f5"></rect><polygon points="306.52 369.88 324.11 369.88 330.45 309.54 312.86 309.54 306.52 369.88" style="fill:#fafafa"></polygon><polygon points="328.61 369.88 332.11 369.88 338.45 309.54 334.95 309.54 328.61 369.88" style="fill:#fafafa"></polygon><rect x="220.27" y="309.54" width="65.88" height="60.34" style="fill:#f5f5f5"></rect><rect x="371.24" y="309.54" width="65.88" height="60.34" style="fill:#f5f5f5"></rect><path d="M439.58,298.91H210.42v83.16h5.1v-4.66H437v4.66h5.1V298.91Zm-224.06,7.52h70v28.89h-70Zm0,63.45V339.62h70v30.26Zm145.76,0H290.62V306.43h70.66Zm75.75,0H366.37V339.62H437Zm0-34.56H366.37V306.43H437Z" style="fill:#f0f0f0"></path><circle cx="251.23" cy="316.7" r="3.06" style="fill:#ebebeb"></circle><path d="M251.23,319.76a3.05,3.05,0,0,1-2.77-1.79,3.06,3.06,0,1,0,5.55,0A3.06,3.06,0,0,1,251.23,319.76Z" style="fill:#e0e0e0"></path><path d="M254.29,352.26a3.06,3.06,0,1,1-3.06-3.06A3.06,3.06,0,0,1,254.29,352.26Z" style="fill:#ebebeb"></path><path d="M251.23,355.32a3,3,0,0,1-2.77-1.79,3.06,3.06,0,1,0,5.55,0A3,3,0,0,1,251.23,355.32Z" style="fill:#e0e0e0"></path><circle cx="405.67" cy="316.7" r="3.06" style="fill:#ebebeb"></circle><path d="M405.67,319.76a3.07,3.07,0,0,1-2.78-1.79,3,3,0,0,0-.28,1.27,3.06,3.06,0,1,0,5.83-1.27A3.05,3.05,0,0,1,405.67,319.76Z" style="fill:#e0e0e0"></path><path d="M355.06,341.48a3.06,3.06,0,1,1-3.06-3.07A3.06,3.06,0,0,1,355.06,341.48Z" style="fill:#ebebeb"></path><path d="M352,344.54a3.07,3.07,0,0,1-2.78-1.79,3,3,0,0,0-.28,1.27,3.06,3.06,0,1,0,5.83-1.27A3.05,3.05,0,0,1,352,344.54Z" style="fill:#e0e0e0"></path><path d="M408.73,352.26a3.06,3.06,0,1,1-3.06-3.06A3.06,3.06,0,0,1,408.73,352.26Z" style="fill:#ebebeb"></path><path d="M405.67,355.32a3.05,3.05,0,0,1-2.78-1.79,3.07,3.07,0,1,0,5.55,0A3,3,0,0,1,405.67,355.32Z" style="fill:#e0e0e0"></path><rect x="79.04" y="103.67" width="63.71" height="82.77" style="fill:#f5f5f5"></rect><rect x="83.94" y="110.04" width="53.9" height="70.03" style="fill:#ebebeb"></rect><rect x="87.31" y="114.42" width="47.16" height="61.27" style="fill:#ebebeb"></rect><polygon points="103.96 149.04 87.31 165.7 87.31 175.69 130.61 175.69 103.96 149.04" style="fill:#fafafa"></polygon><path d="M128,136.56a6.48,6.48,0,1,1-6.48-6.48A6.48,6.48,0,0,1,128,136.56Z" style="fill:#fff"></path><path d="M56.49,283.78c0-8.51,10-15.72,23.85-18.18L66.67,249.26H115L101.3,265.6c13.84,2.46,23.86,9.67,23.86,18.18,0,9.38-12.15,77.94-28.17,93l5.05,6H79.6l5.06-6C68.64,361.72,56.49,293.16,56.49,283.78Z" style="fill:#f0f0f0"></path><path d="M109.33,354.08c-5.76-4.18-9.73-12.85-9.73-22.9,0-14.12,7.83-25.58,17.5-25.58a12.4,12.4,0,0,1,4.73,1C119.06,321,114.71,339.35,109.33,354.08Z" style="fill:#e0e0e0"></path><path d="M67,270.06c6.43,3.78,11,13,11,23.72,0,13.14-6.78,24-15.5,25.4-3.75-16.72-5.95-31.41-5.95-35.4C56.49,278.39,60.51,273.53,67,270.06Z" style="fill:#e6e6e6"></path><path d="M397.15,209.71h0a1.3,1.3,0,0,1,1.3,1.3v82.33a1.3,1.3,0,0,1-1.3,1.3h0a0,0,0,0,1,0,0V209.71A0,0,0,0,1,397.15,209.71Z" style="fill:#e0e0e0"></path><rect x="254.9" y="209.71" width="142.26" height="84.93" style="fill:#ebebeb"></rect><rect x="257.24" y="212.05" width="137.57" height="80.25" style="fill:#e0e0e0"></rect><polygon points="311.61 292.3 332.39 292.3 345.1 212.05 324.32 212.05 311.61 292.3" style="fill:#fafafa;opacity:0.1"></polygon><polygon points="336.09 292.3 340.75 292.3 353.46 212.05 348.8 212.05 336.09 292.3" style="fill:#fafafa;opacity:0.2"></polygon><path d="M344.05,294.64v3h4.23a1.88,1.88,0,0,0,1.88-1.89v-1.15Z" style="fill:#e0e0e0"></path><path d="M344.47,297.68H306.23a3,3,0,0,1-3-3h44.32A3,3,0,0,1,344.47,297.68Z" style="fill:#f0f0f0"></path></g><g id="freepik--Shadow--inject-4"><ellipse id="freepik--path--inject-4" cx="250" cy="415.69" rx="193.89" ry="11.32" style="fill:#f5f5f5"></ellipse></g><g id="freepik--character-2--inject-4"><polygon points="356.01 403.88 355.79 410.34 349.52 410.87 349.24 403.79 356.01 403.88" style="fill:#b55b52"></polygon><path d="M346,411.56a3.12,3.12,0,0,1-2.15-.5.65.65,0,0,1,0-.74.88.88,0,0,1,.53-.42c1.21-.37,3.78,1,3.89,1.08a.17.17,0,0,1,.09.17.21.21,0,0,1-.14.15A12.69,12.69,0,0,1,346,411.56Zm-1.19-1.38a1.26,1.26,0,0,0-.33.05.47.47,0,0,0-.33.25c-.12.22-.08.32,0,.38.35.46,2.18.42,3.53.22A7.93,7.93,0,0,0,344.76,410.18Z" style="fill:#407BFF"></path><path d="M348.13,411.29h-.07c-.87-.36-2.66-1.89-2.53-2.71,0-.2.16-.44.63-.5a1.24,1.24,0,0,1,1,.27c.95.73,1.19,2.69,1.2,2.78a.15.15,0,0,1-.07.15A.13.13,0,0,1,348.13,411.29Zm-1.85-2.89h-.1c-.3,0-.32.16-.33.2,0,.49,1.14,1.69,2,2.2a4,4,0,0,0-1-2.2,1,1,0,0,0-.6-.2Z" style="fill:#407BFF"></path><path d="M348.88,410.26l7.91-.21a.65.65,0,0,1,.64.49l1.6,6.4a1.06,1.06,0,0,1-.76,1.29l-.23,0c-2.85,0-5.39-.07-9,0-4.19.11-3.11.58-8,.78-3,.12-3.61-3.24-2.35-3.44,5.75-.88,6.3-2.64,8.47-4.76A2.54,2.54,0,0,1,348.88,410.26Z" style="fill:#263238"></path><polygon points="314.24 399.35 311.96 411.16 305.51 409 307.67 397.73 314.24 399.35" style="fill:#b55b52"></polygon><path d="M301.62,407.43c-.87-.27-1.71-.7-1.88-1.16a.65.65,0,0,1,.23-.71.92.92,0,0,1,.64-.23c1.25,0,3.25,2.17,3.34,2.26a.18.18,0,0,1,0,.2.17.17,0,0,1-.17.09A13.39,13.39,0,0,1,301.62,407.43Zm-.69-1.69a1,1,0,0,0-.33-.06.47.47,0,0,0-.39.13c-.19.17-.18.28-.15.35.19.55,1.93,1.1,3.27,1.34A7.84,7.84,0,0,0,300.93,405.74Z" style="fill:#407BFF"></path><path d="M303.77,407.87a.07.07,0,0,1-.06,0c-.72-.62-1.93-2.64-1.54-3.37.08-.18.29-.37.75-.28a1.28,1.28,0,0,1,.83.56c.66,1,.27,2.93.26,3a.2.2,0,0,1-.12.13Zm-.83-3.33-.09,0c-.31-.06-.36.05-.39.09-.18.46.55,2,1.25,2.74a4,4,0,0,0-.27-2.41.87.87,0,0,0-.5-.38Z" style="fill:#407BFF"></path><path d="M304.8,407.13l7.58,2.32a.65.65,0,0,1,.45.66l-.52,6.58a1.07,1.07,0,0,1-1.14,1l-.22,0c-2.71-.88-5.1-1.78-8.5-2.82-4-1.23-3.14-.43-7.87-1.81-2.86-.84-2.39-4.23-1.13-4,5.72,1,6.81-.49,9.54-1.81A2.51,2.51,0,0,1,304.8,407.13Z" style="fill:#263238"></path><polygon points="312.88 406.64 313.37 403.85 306.84 402.07 306.3 404.87 312.88 406.64" style="opacity:0.2"></polygon><polygon points="355.93 407.26 356.01 403.28 349.28 403.38 349.34 407.26 355.93 407.26" style="opacity:0.2"></polygon><polygon points="359.89 272.37 329.68 266.39 325.14 286.12 313.22 337.91 303.25 402.34 314.47 404.9 329.29 340.59 344.31 292.03 360.53 293.14 359.89 272.37" style="fill:#263238"></polygon><polygon points="303.25 398.81 316.12 401.69 314.73 405.4 302.43 402.28 303.25 398.81" style="fill:#407BFF"></polygon><path d="M356.86,339.64l4.58-47.15a69.17,69.17,0,0,0-.26-16.71l-.51-.13-7.25-.94-11,2.74-2.17,61.45a12.36,12.36,0,0,0,0,1.49l5.17,64.19L358,404Z" style="fill:#263238"></path><polygon points="341.94 299.64 339.94 290.1 339.53 307.49 341.94 299.64" style="opacity:0.30000000000000004"></polygon><path d="M331.07,229.19l-11.2,14.39a52.66,52.66,0,0,0,1.31,18s4.13,3,4,5.1,1.35,7,1.35,7l-3.29,1.68-3.64-.69-1.45-5.11-.66-6.14s-9-17.83-4-25.23A185.29,185.29,0,0,1,325,223.63Z" style="fill:#b55b52"></path><path d="M334.37,222.18s.26,5.79-9.78,16.76l-9.54-7.63,4.89-5.83a16.38,16.38,0,0,1,11-5.78h0Z" style="fill:#407BFF"></path><path d="M331.56,229.76l.84-1.53c-2.37,1.59-8.85,7.6-9.49,8.83l1.93,1.6A49.09,49.09,0,0,0,331.56,229.76Z" style="opacity:0.2"></path><polygon points="323.74 241.22 325.32 239.07 315.18 230.62 313.53 232.47 323.74 241.22" style="fill:#407BFF"></polygon><polygon points="323.74 241.22 325.32 239.07 315.18 230.62 313.53 232.47 323.74 241.22" style="fill:#fff;opacity:0.5"></polygon><path d="M360,255.45c.49-8.47,2.21-32.9,2.21-32.9a33.51,33.51,0,0,0-7.15-2.56c-2.89,1.52-9.33,4.77-11.51,4.76-1.94,0-3.28-3.82-3.92-6.22a59.24,59.24,0,0,0-9.2,1.17h0a75.42,75.42,0,0,0-2.75,18.47c-.2,8.51-.31,21.62.33,35.35,0,0,6.51,4.77,21.81,4.3a42.19,42.19,0,0,0,11.33-2S359.73,260.75,360,255.45Z" style="fill:#407BFF"></path><path d="M370.37,230.37l6.86,6s6-8.61,10.46-14.27c0,0-1.1-3.8.95-6.13l1-3.53,3.22-1,4.42,5.73-5.44,7.17s-9.55,20.67-12.93,21.2-13.07-8.36-13.07-8.36Z" style="fill:#b55b52"></path><path d="M357.48,221.05s4.6-.29,15.9,9.38l-7.3,9.79-7.14-4.91-4.52-10.09Z" style="fill:#407BFF"></path><polygon points="375.69 231.2 373.49 229.69 365.38 240.12 367.29 241.7 375.69 231.2" style="fill:#407BFF"></polygon><polygon points="375.69 231.2 373.49 229.69 365.38 240.12 367.29 241.7 375.69 231.2" style="fill:#fff;opacity:0.5"></polygon><path d="M361.67,230.72c-.13,1.89-.28,4-.43,6.17l2.54,1.75A27.94,27.94,0,0,0,361.67,230.72Z" style="opacity:0.2"></path><path d="M352.6,219.43c-2.13-2.34-.44-11.78-.44-11.78l-7.24,2.91s-.57,6.52-2.37,7.9c-.71.54-1.8,0-2.74.06l2.13,6.12,4.84.33,8.71-4.87C354.6,219.86,353.32,220.21,352.6,219.43Z" style="fill:#b55b52"></path><path d="M344.16,215.08a9.38,9.38,0,0,0,7.83-6.31c.1-.69.17-1.12.17-1.12l-7.24,2.91A33.55,33.55,0,0,1,344.16,215.08Z" style="opacity:0.1"></path><polygon points="340.68 218.04 344.04 224.89 338.77 228.18 338.32 218.16 340.68 218.04" style="fill:#407BFF"></polygon><polygon points="340.68 218.04 344.04 224.89 338.77 228.18 338.32 218.16 340.68 218.04" style="fill:#fff;opacity:0.5"></polygon><polygon points="354.74 219.28 343.12 224.62 347.32 229.8 356.86 220.17 354.74 219.28" style="fill:#407BFF"></polygon><polygon points="354.74 219.28 343.12 224.62 347.32 229.8 356.86 220.17 354.74 219.28" style="fill:#fff;opacity:0.5"></polygon><path d="M340.35,187.4a4,4,0,0,1,5.53-5.13,12,12,0,0,1,10.81-.74,10.66,10.66,0,0,1,5.89,8.3c1.85,1.7,3.84,4,4.44,6.42a5.83,5.83,0,0,1-.1,3.76,2.83,2.83,0,0,1-3.07,1.72,5.57,5.57,0,0,1-4.1,4.46l-8.26,3.4.52,0c-4.2,0-8.3-2.82-10.53-6.38s-3-7.86-3.07-12.06C338.38,189.65,338.87,187.78,340.35,187.4Z" style="fill:#263238"></path><path d="M357.63,199.11c-2.4,6.35-3.28,9.08-7.57,11.39-6.46,3.48-13.73-.86-13.29-7.79.41-6.24,4.27-15.61,11.39-16.19a9.27,9.27,0,0,1,9.47,12.59Z" style="fill:#b55b52"></path><path d="M346.79,197.62c-.17.52-.58.86-.92.76s-.49-.62-.34-1.15.58-.87.92-.77S346.91,197.11,346.79,197.62Z" style="fill:#263238"></path><path d="M340.83,195.79c-.17.54-.58.87-.92.77s-.49-.63-.33-1.15.58-.87.92-.76S341,195.27,340.83,195.79Z" style="fill:#263238"></path><path d="M342.37,197.31a14.58,14.58,0,0,1-2.92,2.79,2.44,2.44,0,0,0,1.77.93Z" style="fill:#842828"></path><path d="M349.55,197.16a.32.32,0,0,1-.27-.27,3.84,3.84,0,0,0-2-2.32.32.32,0,0,1-.16-.44.31.31,0,0,1,.42-.15h0a4.41,4.41,0,0,1,2.36,2.81.32.32,0,0,1-.26.37h-.1Z" style="fill:#263238"></path><path d="M339.89,192.49a.32.32,0,0,1-.08-.62,3.15,3.15,0,0,1,3,.2.31.31,0,0,1,.1.43l0,0a.32.32,0,0,1-.44.08h0a2.58,2.58,0,0,0-2.34-.13A.27.27,0,0,1,339.89,192.49Z" style="fill:#263238"></path><path d="M340.73,203.3a10.84,10.84,0,0,0,5.24-.16s-.06,3.42-4.36,2.85l-.8-.14A5,5,0,0,0,340.73,203.3Z" style="fill:#263238"></path><path d="M341.44,203.42l0,.79a7.36,7.36,0,0,0,4.28-.05,3.29,3.29,0,0,0,.23-1A9.76,9.76,0,0,1,341.44,203.42Z" style="fill:#fff"></path><path d="M345.27,204.94a7.74,7.74,0,0,0-1.1-.05c-1.46,0-2.63.51-2.79,1.06l.23,0C343.61,206.25,344.69,205.66,345.27,204.94Z" style="fill:#c13b37"></path><path d="M357.85,204.63a4.88,4.88,0,0,1-3.18,1.92c-1.69.23-2.31-1.33-1.66-2.82.6-1.34,2.2-3.07,3.82-2.66a2.19,2.19,0,0,1,1.48,2.72A2.23,2.23,0,0,1,357.85,204.63Z" style="fill:#b55b52"></path><path d="M354.62,185.55a3.83,3.83,0,0,1,3.3,2.18c.66,1.22,2.73,4.42,2.74,5.81,0,3.75.17,5.68-4.91,9.11a6.43,6.43,0,0,0,.12-5.37c-.89-.36-1.84-.29-2.34-1.12s-.38-3,.57-3.17c-1.68-.08-3.11-1.6-3.77-3.15a5.14,5.14,0,0,1-4.68-1,4,4,0,0,1-4.26,1.14,10.19,10.19,0,0,1,5.2-5.55,9.27,9.27,0,0,1,7.23.32Z" style="fill:#263238"></path><path d="M395.26,207.78s.9-1.22,1.36-.15c.24.56-3.72,7-3.72,7l-1.66-.89Z" style="fill:#b55b52"></path><polygon points="344.33 400.01 358.42 399.24 358.26 403.94 344.69 404.25 344.33 400.01" style="fill:#407BFF"></polygon></g><g id="freepik--character-1--inject-4"><g id="freepik--freepik--Character--inject-282--inject-4"><path d="M212.78,179.8A22.74,22.74,0,0,0,215,184a1.73,1.73,0,0,1-1.69.74Z" style="fill:#df5753"></path><path d="M212.65,177.55c.46-.05.89.48,1,1.18s-.24,1.3-.69,1.34-.88-.47-1-1.17S212.2,177.6,212.65,177.55Z" style="fill:#263238"></path><path d="M192.21,190.1c1.54,5,3.52,14.24.29,18,0,0,1.95,5,11.44,4,10.43-1.09,4.43-5.69,4.43-5.69-5.83-.77-6.13-5-5.55-9.08Z" style="fill:#e58a7b"></path><path d="M188.22,178.76c1.42,8.46,1.84,12.08,6.6,16,7.17,5.91,17.26,2.32,18.41-6.35,1-7.87-.21-18.87-8.94-21.39-6.2-1.83-13.94.22-15.77,6.42A11.67,11.67,0,0,0,188.22,178.76Z" style="fill:#b55b52"></path><path d="M189.55,209h0a2,2,0,0,1,1.37-2.36c3.79-1,12.43-3.25,16.91-3.1,3.33.12,4.39,1.94,4.69,3.49a1.93,1.93,0,0,1-1.53,2.26l-.31,0-19.16,1.12A2,2,0,0,1,189.55,209Z" style="fill:#407BFF"></path><path d="M189.55,209h0a2,2,0,0,1,1.37-2.36c3.79-1,12.43-3.25,16.91-3.1,3.33.12,4.39,1.94,4.69,3.49a1.93,1.93,0,0,1-1.53,2.26l-.31,0-19.16,1.12A2,2,0,0,1,189.55,209Z" style="opacity:0.6000000000000001;isolation:isolate"></path><path d="M184.67,218l-5.54,16L192,251.16l-5,3.35s-14.57-11.69-18.06-18.42c-.78-1.52,9-23.91,9-23.91Z" style="fill:#b55b52"></path><path d="M182.31,230.11l-13.42-6.75s6.59-15.26,11.08-16.9C195.49,202.55,182.31,230.11,182.31,230.11Z" style="fill:#407BFF"></path><path d="M192,251.16l6.44,3.66s2.39,6.34,1.13,6.88-5.9,2.11-5.9,2.11-2.78-3.85-4-4.76-2.68-4.54-2.68-4.54Z" style="fill:#b55b52"></path><path d="M223.15,207.14s-1.94,9.7,1.32,52.36l-34.08-.12c-.91-14.32-2.66-19.31-12.52-47.75a103.78,103.78,0,0,1,14.63-3.5,108.39,108.39,0,0,1,15.87-1.66C215.26,206.37,223.15,207.14,223.15,207.14Z" style="fill:#407BFF"></path><path d="M233.69,186.52s0-1.39.93-.84c.49.3.94,7.23.94,7.23l-1.72.22Z" style="fill:#b55b52"></path><path d="M227,213.29l5,8.25a132,132,0,0,0,2.71-19s-1-2.39-2.28-6l.28-4.31a1.54,1.54,0,0,1,1.91-1.4l5,1.27a1.54,1.54,0,0,1,1.15,1.69l-1.18,8.69s2.16,29.31-4.07,30.56C228.9,234.31,221,217.51,221,217.51Z" style="fill:#b55b52"></path><path d="M222.67,226.8l-7-12.31,2.69,12C220,231.36,222.75,229.46,222.67,226.8Z" style="opacity:0.2;isolation:isolate"></path><path d="M228.27,210.55c3.3,7,4.28,8.13,4.28,8.13l-9.88,8.12s-11.92-16.67-10.76-21.31C212.62,202.67,220.45,196.76,228.27,210.55Z" style="fill:#407BFF"></path><path d="M210.48,172a13.68,13.68,0,0,1-.85,7.43c-1.61,3.55-1.32,10.12,1.08,13.17,1.93,2.45,5.25,3.29,7.49,5.47s3.58,5.34,2.23,8.47c-1.21,2.78-6.6,2.17-8.11,4.76-2.06,3.5-1.09,10.36-5.84,10.41-6.76.12-8.37-5.86-13.06-4.78s-11.81,2.84-13.68-4.39c-1.15-4.44,1.95-7.58,2.4-11.76.33-3-1.7-5.34-2.14-8.18a11.25,11.25,0,0,1,2.06-8.4c1.28-1.75,3-3,3.66-5.19.55-1.71.89-3.48,1.41-5.21a10.19,10.19,0,0,1,7.59-7.49C205.91,163.78,209.4,167.5,210.48,172Z" style="fill:#263238"></path><path d="M206.71,181.65a8.56,8.56,0,0,0,1.82,4.44c1.34,1.63,2.64.82,2.79-1.09.13-1.69-.41-4.59-2-5.58S206.52,179.69,206.71,181.65Z" style="fill:#b55b52"></path><path d="M215.33,169.25a3.17,3.17,0,0,1-1.25,4.11,5.23,5.23,0,0,1-5.7,5.32c1.31-.65,1.33-2.6.58-3.85-1.39-2.31-5.59-4.65-2.54-7.39C208.75,165.36,214.05,166.48,215.33,169.25Z" style="fill:#263238"></path></g><path d="M213.9,176.66a2.69,2.69,0,0,0-2.44.48h0l-.09.07a.35.35,0,0,1-.39-.57A3.4,3.4,0,0,1,214,176a.35.35,0,0,1,.11.63A.38.38,0,0,1,213.9,176.66Z" style="fill:#263238"></path><path d="M190.39,259.38s-6.47,9.09-12.38,40.21c-7.79,32.87-26.6,100-26.6,100l13.31,2.92s27.45-78.17,34.66-101.73a274.84,274.84,0,0,1,17.05-41.43Z" style="fill:#263238"></path><path d="M204.2,259.38s1.7,55.17,1.14,80.81c-2.52,24.61-1.84,53.71-1.23,62.89h12.78s9-82.37,11.59-106.27c2.51-23-4-37.31-4-37.31Z" style="fill:#263238"></path><path d="M212.71,286.79h0c-.74-.17-4.5-1.23-8.41-6.6-1.11-1.53-3.63-6.63-3.63-6.63a48.37,48.37,0,0,0,2.39,9.16c1.59,3.74,7.39,6.77,9.65,4.07Z" style="opacity:0.30000000000000004;isolation:isolate"></path><path d="M214,413.48a.16.16,0,0,1-.14-.15.15.15,0,0,1,.08-.18c.14-.06,2.78-1.56,4-1.22a.88.88,0,0,1,.58.42.68.68,0,0,1,0,.77c-.32.45-1.21.58-2.22.58A14,14,0,0,1,214,413.48Zm3.53-1.27a8.24,8.24,0,0,0-3,1c1.4.19,3.31.18,3.66-.3.08-.07.12-.17,0-.39a.49.49,0,0,0-.35-.26h-.34Z" style="fill:#407BFF"></path><path d="M213.9,413.44a.18.18,0,0,1-.08-.16c0-.09.17-2.11,1.18-2.91a1.28,1.28,0,0,1,1-.3c.49.05.66.3.66.5.14.88-1.66,2.48-2.58,2.89H214A.13.13,0,0,1,213.9,413.44Zm2-3a.94.94,0,0,0-.63.26,4.23,4.23,0,0,0-1,2.33c.94-.56,2.16-1.84,2.08-2.36,0,0,0-.2-.36-.2h-.1Z" style="fill:#407BFF"></path><polygon points="206.48 399.8 214.02 398.8 213.26 413.28 205.72 413.28 206.48 399.8" style="fill:#b55b52"></polygon><path d="M215,413c5.1,3.15,6.67,3.29,12.58,4.58,1.29.28.43,3.42-2.66,3.42-5.12,0-5.66-.25-10-.25-3.74,0-8,.18-11,.23a1.27,1.27,0,0,1-.28,0,1.09,1.09,0,0,1-.8-1.31l1.48-6.71a.66.66,0,0,1,.64-.51h8.25A3.47,3.47,0,0,1,215,413Z" style="fill:#263238"></path><polygon points="206.47 399.81 206.08 405.7 213.64 405.7 214.02 399.81 206.47 399.81" style="opacity:0.2;isolation:isolate"></polygon><path d="M202.22,398.56l.43,4.73h15.54s.78-5.3.72-5.3Z" style="fill:#407BFF"></path><path d="M151,413.39a.16.16,0,0,1-.14.14.15.15,0,0,1-.18-.09c-.07-.13-1.56-2.78-1.2-4a.9.9,0,0,1,.41-.56.68.68,0,0,1,.79,0c.43.32.55,1.22.55,2.22A13.82,13.82,0,0,1,151,413.39Zm-1.23-3.53a8.16,8.16,0,0,0,.92,3c.21-1.4.21-3.31-.27-3.66-.06-.08-.18-.12-.4,0a.51.51,0,0,0-.25.35,1,1,0,0,0,0,.34Z" style="fill:#407BFF"></path><path d="M151,413.46a.14.14,0,0,1-.16.07c-.08,0-2.12-.18-2.89-1.18a1.33,1.33,0,0,1-.31-1c.05-.49.31-.66.51-.66.85-.13,2.47,1.69,2.87,2.59v.07A.16.16,0,0,1,151,413.46Zm-3-2a1,1,0,0,0,.25.62,4.17,4.17,0,0,0,2.32,1c-.56-.94-1.83-2.17-2.34-2.09,0,0-.2,0-.2.35v.11Z" style="fill:#407BFF"></path><polygon points="154.34 398.91 161.69 399.47 158.3 413.92 150.93 413.39 154.34 398.91" style="fill:#b55b52"></polygon><polygon points="154.43 398.5 152.94 404.86 160.3 405.39 161.8 399.01 154.43 398.5" style="opacity:0.2;isolation:isolate"></polygon><path d="M149.15,412.43c-2,2.35-3,3.56-8.8,5.37-1.27.39-.13,3.44,3,3.17,5.1-.46,2.29-.45,6.63-.83,3.72-.33,8-.53,11-.75a1,1,0,0,0,.3-.05,1.1,1.1,0,0,0,.71-1.38l-2.08-6.55a.65.65,0,0,0-.68-.46l-8.21.73A2.56,2.56,0,0,0,149.15,412.43Z" style="fill:#263238"></path><path d="M149.82,397.15l-.07,4.76,16,1.71s1.37-5.19,1.31-5.19Z" style="fill:#407BFF"></path></g><g id="freepik--lamp-1--inject-4"><polygon points="87.06 194.18 82.63 194.15 81.42 192.59 88.3 192.63 87.06 194.18" style="fill:#407BFF"></polygon><polygon points="87.06 194.18 82.63 194.15 81.42 192.59 88.3 192.63 87.06 194.18" style="fill:#fff;opacity:0.5"></polygon><path d="M94.64,174.29a9.26,9.26,0,0,1-3.29,7,6.06,6.06,0,0,0-2.24,4.58v.71l-8.45-.06v-.71a6.1,6.1,0,0,0-2.17-4.6,9.22,9.22,0,0,1-3.2-7,9.67,9.67,0,0,1,19.34.15Z" style="fill:#407BFF"></path><path d="M94.64,174.29a9.26,9.26,0,0,1-3.29,7,6.06,6.06,0,0,0-2.24,4.58v.71l-8.45-.06v-.71a6.1,6.1,0,0,0-2.17-4.6,9.22,9.22,0,0,1-3.2-7,9.67,9.67,0,0,1,19.34.15Z" style="fill:#fff;opacity:0.5"></path><path d="M83.54,186.53,82,178.88a.22.22,0,0,1,.19-.27h0a.22.22,0,0,1,.27.18L84,186.44Z" style="fill:#407BFF"></path><path d="M86.28,186.55l-.47-.09,1.67-7.63a.24.24,0,0,1,.28-.18h0a.23.23,0,0,1,.18.28Z" style="fill:#407BFF"></path><polygon points="85.9 182.06 84.95 180.38 83.99 182.04 82.21 180.03 82.57 179.73 83.91 181.25 84.96 179.42 85.99 181.26 87.35 179.76 87.71 180.07 85.9 182.06" style="fill:#407BFF"></polygon><path d="M89.8,187.73a1.07,1.07,0,0,1-1.08,1H87.63a1,1,0,0,1-.25,0l-6.3,0a1,1,0,1,1,0-2.08h1.12a.78.78,0,0,1,.22,0h0l6.3,0A1.06,1.06,0,0,1,89.8,187.73Z" style="fill:#407BFF"></path><path d="M89.41,189.72a1,1,0,0,1-1,1h-1a.82.82,0,0,1-.22,0l-5.86,0a1,1,0,0,1-1-1.05,1,1,0,0,1,1-1h1l.2,0h0l5.86,0A1,1,0,0,1,89.41,189.72Z" style="fill:#407BFF"></path><path d="M89,191.72a1,1,0,0,1-.92,1h-.94l-.21,0-5.42-.05a1,1,0,0,1-.92-1.05,1,1,0,0,1,.91-1h1l.19,0h0l5.42,0A1,1,0,0,1,89,191.72Z" style="fill:#407BFF"></path><polygon points="81.22 193.28 81.22 192.71 88.46 192.75 88.46 193.31 81.22 193.28" style="fill:#407BFF"></polygon><rect x="80.66" y="186.21" width="8.44" height="0.57" style="fill:#407BFF"></rect><g style="opacity:0.4"><path d="M76.41,172.52A3.21,3.21,0,0,0,76.3,174v0a.64.64,0,0,0,1.21.05,6.55,6.55,0,0,1,4.19-3.88c1.47-.44,3.28-.49,3.74-2.26a1.65,1.65,0,0,0-.11-.95h0C84.12,164.48,77.59,167.74,76.41,172.52Z" style="fill:#fff"></path></g><path d="M86.42,167.47a1.37,1.37,0,0,0,.39,1.4,1.88,1.88,0,0,0,1.18.36,1.51,1.51,0,0,0,1.21-.36,1.3,1.3,0,0,0,0-1.44C88.53,166,86.87,165.69,86.42,167.47Z" style="fill:#fff;opacity:0.4"></path><path d="M88.31,196.56v2.62a28.13,28.13,0,0,1-3.34.2,28.56,28.56,0,0,1-3.35-.2v-2.62Z" style="fill:#263238"></path><line x1="84.97" y1="411.27" x2="84.97" y2="224.45" style="fill:none;stroke:#263238;stroke-linecap:round;stroke-linejoin:round;stroke-width:4px"></line><path d="M113,172.19a27.18,27.18,0,0,1-17,25,12.11,12.11,0,0,0-7.71,11.08v16.2H81.62v-16.2a12.11,12.11,0,0,0-7.7-11.08,27.19,27.19,0,0,1-17-25Z" style="fill:#407BFF"></path><path d="M53.59,414l.21.17-.54-.08Z" style="fill:#407BFF"></path><path d="M117,414.1l-.53.07a1.75,1.75,0,0,0,.2-.16Z" style="fill:#407BFF"></path><path d="M117,413.39a.87.87,0,0,1-.33.62,1.75,1.75,0,0,1-.2.16c-2.72,2-15.72,3.54-31.34,3.54s-28.58-1.52-31.32-3.53l-.21-.17a.87.87,0,0,1-.33-.62c0-1.08,2.88-2.06,7.64-2.82A162.25,162.25,0,0,0,81,406l1.23-.35h5.7l1.31.37a158.07,158.07,0,0,0,19.9,4.49C114,411.3,117,412.29,117,413.39Z" style="fill:#263238"></path></g><g id="freepik--light-bulb--inject-4"><polygon points="268.58 188.09 254.47 183.29 252.28 176.84 274.24 184.29 268.58 188.09" style="fill:#407BFF"></polygon><polygon points="268.58 188.09 254.47 183.29 252.28 176.84 274.24 184.29 268.58 188.09" style="fill:#fff;opacity:0.5"></polygon><path d="M314.61,130.54A32.57,32.57,0,0,1,296.46,150a21.38,21.38,0,0,0-12.16,12.72l-.8,2.34-26.93-9.15.79-2.34a21.39,21.39,0,0,0-1.89-17.47A32.59,32.59,0,0,1,295.88,89.7,32.84,32.84,0,0,1,314.61,130.54Z" style="fill:#407BFF"></path><path d="M314.61,130.54A32.57,32.57,0,0,1,296.46,150a21.38,21.38,0,0,0-12.16,12.72l-.8,2.34-26.93-9.15.79-2.34a21.39,21.39,0,0,0-1.89-17.47A32.59,32.59,0,0,1,295.88,89.7,32.84,32.84,0,0,1,314.61,130.54Z" style="fill:#fff;opacity:0.5"></path><circle cx="279.44" cy="132.53" r="20.7" transform="translate(29.2 314.28) rotate(-61.36)" style="fill:#fff;opacity:0.4"></circle><path d="M265.73,159.11l3.4-26.88a.81.81,0,0,1,.9-.7h0a.8.8,0,0,1,.69.9l-3.4,26.88Z" style="fill:#407BFF"></path><path d="M274.44,162.1l-1.38-.8,13.67-23.4a.8.8,0,0,1,1.09-.29h0a.79.79,0,0,1,.29,1.1Z" style="fill:#407BFF"></path><polygon points="278.15 146.87 276.98 140.32 272.05 144.79 268.57 136.27 270.05 135.66 272.67 142.07 278.04 137.18 279.33 144.33 285.3 140.84 286.11 142.22 278.15 146.87" style="fill:#407BFF"></polygon><path d="M284.41,169.7a3.62,3.62,0,0,1-4.58,2.26l-3.48-1.17a3.25,3.25,0,0,1-.81-.17l-20.11-6.79a3.61,3.61,0,0,1,2.23-6.87l.08,0,3.48,1.17a3.16,3.16,0,0,1,.73.15l.08,0,20.11,6.79A3.62,3.62,0,0,1,284.41,169.7Z" style="fill:#407BFF"></path><path d="M281,175.88a3.47,3.47,0,0,1-4.33,2.33l-3.24-1.09a3.22,3.22,0,0,1-.75-.15L254,170.62a3.62,3.62,0,0,1,2.22-6.87l.08,0,3.23,1.1a3.35,3.35,0,0,1,.69.13l.07,0L279,171.37A3.51,3.51,0,0,1,281,175.88Z" style="fill:#407BFF"></path><path d="M277.55,182.05a3.37,3.37,0,0,1-4.08,2.42l-3-1a2.47,2.47,0,0,1-.7-.13l-17.27-5.9a3.42,3.42,0,0,1-1.8-4.44,3.38,3.38,0,0,1,4-2.43l.07,0,3,1a2.77,2.77,0,0,1,.64.11l.07,0,17.27,5.91A3.42,3.42,0,0,1,277.55,182.05Z" style="fill:#407BFF"></path><polygon points="250.9 178.92 251.52 177.05 274.62 184.84 274 186.71 250.9 178.92" style="fill:#407BFF"></polygon><rect x="269.08" y="146.18" width="1.96" height="28.45" transform="translate(32.55 365.95) rotate(-71.58)" style="fill:#407BFF"></rect><g style="opacity:0.4"><path d="M258.28,105.32a11.55,11.55,0,0,0-2,4.65v0a2.12,2.12,0,0,0,3.79,1.46,22.45,22.45,0,0,1,17.67-8.36c5.16.11,11,1.87,14.41-3.47a5.66,5.66,0,0,0,.7-3.24s0,0,0-.07C291.72,87,267.28,90.8,258.28,105.32Z" style="fill:#fff"></path></g><path d="M295.8,99.3a5,5,0,0,0-.28,5,6.39,6.39,0,0,0,3.38,2.43,5.14,5.14,0,0,0,4.25.1c1.54-.88,2-2.94,1.73-4.7C304.15,96.74,299.2,93.89,295.8,99.3Z" style="fill:#fff;opacity:0.4"></path><path d="M255.63,63.65,267,79.56" style="fill:#fff;stroke:#407BFF;stroke-miterlimit:10;stroke-width:1.5px"></path><path d="M213.59,88.17,240.46,101" style="fill:#fff;stroke:#407BFF;stroke-miterlimit:10;stroke-width:1.5px"></path><path d="M216.61,136.06l20.09.67" style="fill:#fff;stroke:#407BFF;stroke-miterlimit:10;stroke-width:1.5px"></path><path d="M338.21,91.77l-18.73,5.65" style="fill:#fff;stroke:#407BFF;stroke-miterlimit:10;stroke-width:1.5px"></path><path d="M356.55,136.85l-29.12-6.22" style="fill:#fff;stroke:#407BFF;stroke-miterlimit:10;stroke-width:1.5px"></path><path d="M324.94,172.94l-16.32-11.73" style="fill:#fff;stroke:#407BFF;stroke-miterlimit:10;stroke-width:1.5px"></path></g><g id="freepik--lamp-2--inject-4"><polygon points="400.12 113.7 403.28 113.72 404.15 114.87 399.23 114.84 400.12 113.7" style="fill:#407BFF"></polygon><polygon points="400.12 113.7 403.28 113.72 404.15 114.87 399.23 114.84 400.12 113.7" style="fill:#fff;opacity:0.5"></polygon><path d="M394.7,128.36a6.91,6.91,0,0,1,2.35-5.13,4.56,4.56,0,0,0,1.6-3.37v-.53l6,0v.53a4.53,4.53,0,0,0,1.55,3.39,6.91,6.91,0,0,1-5,12A7,7,0,0,1,394.7,128.36Z" style="fill:#407BFF"></path><path d="M394.7,128.36a6.91,6.91,0,0,1,2.35-5.13,4.56,4.56,0,0,0,1.6-3.37v-.53l6,0v.53a4.53,4.53,0,0,0,1.55,3.39,6.91,6.91,0,0,1-5,12A7,7,0,0,1,394.7,128.36Z" style="fill:#fff;opacity:0.5"></path><path d="M402.63,119.34l1.11,5.64a.17.17,0,0,1-.13.2h0a.17.17,0,0,1-.19-.14l-1.12-5.64Z" style="fill:#407BFF"></path><path d="M400.67,119.32l.34.07L399.82,125a.17.17,0,0,1-.2.13h0a.16.16,0,0,1-.13-.2Z" style="fill:#407BFF"></path><polygon points="400.94 122.63 401.62 123.87 402.31 122.64 403.58 124.13 403.32 124.35 402.37 123.23 401.61 124.58 400.88 123.22 399.91 124.32 399.65 124.1 400.94 122.63" style="fill:#407BFF"></polygon><path d="M398.16,118.45a.77.77,0,0,1,.77-.76h.78a.47.47,0,0,1,.17,0l4.5,0a.77.77,0,0,1,0,1.53h-.79l-.16,0h0l-4.5,0A.76.76,0,0,1,398.16,118.45Z" style="fill:#407BFF"></path><path d="M398.44,117a.74.74,0,0,1,.71-.76h.73a.41.41,0,0,1,.16,0l4.19,0a.77.77,0,0,1,0,1.54h-.75l-.14,0h0l-4.18,0A.73.73,0,0,1,398.44,117Z" style="fill:#407BFF"></path><path d="M398.71,115.51a.73.73,0,0,1,.66-.76H400a.39.39,0,0,1,.15,0l3.88,0a.72.72,0,0,1,.65.77.71.71,0,0,1-.64.76h-.69l-.13,0h0l-3.87,0A.73.73,0,0,1,398.71,115.51Z" style="fill:#407BFF"></path><polygon points="404.29 114.36 404.29 114.78 399.12 114.75 399.12 114.34 404.29 114.36" style="fill:#407BFF"></polygon><rect x="398.65" y="119.16" width="6.04" height="0.42" style="fill:#407BFF"></rect><g style="opacity:0.4"><path d="M407.72,129.67a2.44,2.44,0,0,0,.09-1.07h0a.45.45,0,0,0-.86,0,4.74,4.74,0,0,1-3,2.86c-1,.33-2.34.37-2.66,1.67a1.21,1.21,0,0,0,.07.7h0C402.22,135.59,406.88,133.19,407.72,129.67Z" style="fill:#fff"></path></g><path d="M400.57,133.39a1,1,0,0,0-.28-1,1.37,1.37,0,0,0-.84-.26,1.08,1.08,0,0,0-.86.26,1,1,0,0,0,0,1.06C399.06,134.46,400.25,134.7,400.57,133.39Z" style="fill:#fff;opacity:0.4"></path><rect x="399.22" y="89.57" width="4.78" height="20.56" style="fill:#263238"></rect><line x1="401.61" y1="55.2" x2="401.61" y2="89.57" style="fill:none;stroke:#263238;stroke-linecap:round;stroke-linejoin:round"></line><line x1="399.21" y1="104.95" x2="404.06" y2="104.95" style="fill:none;stroke:#fff;stroke-linecap:round;stroke-linejoin:round"></line><path d="M381.57,128.11a20,20,0,1,1,40.08,0Z" style="fill:#263238"></path></g></svg>